<svg width="120" height="120" viewBox="0 0 120 120" fill="none" xmlns="http://www.w3.org/2000/svg">
<g clip-path="url(#clip0_4_9)">
<path d="M83.065 80.425C69.9 87.84 62.385 103.2 60 107.5V40C62.075 36.27 68.01 25.58 78.16 18.32C82.435 15.26 84.57 13.73 87.285 15.12C90 16.52 90 19.6 90 25.755V69.955C90 73.285 90 74.95 89.315 76.115C88.635 77.285 86.775 78.33 83.065 80.425Z" stroke="#222222" stroke-width="7.5" stroke-linecap="round" stroke-linejoin="round"/>
<path d="M60 39.03C56.565 35.42 46.61 26.85 29.9 23.85C21.44 22.325 17.21 21.565 13.6 24.48C10 27.4 10 32.13 10 41.605V75.65C10 84.31 10 88.64 12.315 91.345C14.625 94.045 19.715 94.965 29.905 96.795C38.98 98.425 46.065 101.03 51.195 103.645C56.245 106.215 58.765 107.5 60 107.5C61.235 107.5 63.76 106.215 68.8 103.645C73.935 101.03 81.02 98.425 90.1 96.795C100.28 94.965 105.375 94.045 107.685 91.345C110 88.64 110 84.31 110 75.645V41.61C110 32.14 110 27.405 106.4 24.485C102.785 21.565 95 23.85 90 27.5" stroke="#222222" stroke-width="7.5" stroke-linecap="round" stroke-linejoin="round"/>
<path d="M11.35 119.31C10.6367 119.31 10.04 119.07 9.56 118.59C9.08 118.11 8.84167 117.517 8.84501 116.81C8.84834 116.103 9.08834 115.508 9.565 115.025C10.0417 114.542 10.635 114.302 11.345 114.305H108.655C109.365 114.305 109.958 114.545 110.435 115.025C110.912 115.505 111.152 116.098 111.155 116.805C111.158 117.512 110.918 118.107 110.435 118.59C109.952 119.073 109.358 119.313 108.655 119.31H11.35ZM23.08 109.31C20.7767 109.31 18.855 108.538 17.315 106.995C15.775 105.452 15.0033 103.53 15 101.23V52.385C15 50.085 15.7717 48.1633 17.315 46.62C18.8583 45.0767 20.7783 44.3067 23.075 44.31H96.925C99.225 44.31 101.145 45.08 102.685 46.62C104.225 48.16 104.997 50.0817 105 52.385V101.235C105 103.535 104.228 105.455 102.685 106.995C101.142 108.535 99.22 109.307 96.92 109.31H23.08ZM23.08 104.31H96.925C97.6917 104.31 98.3967 103.988 99.04 103.345C99.6833 102.702 100.003 101.997 100 101.23V52.385C100 51.6183 99.68 50.9133 99.04 50.27C98.3967 49.6267 97.69 49.305 96.92 49.305H23.08C22.31 49.305 21.6033 49.6267 20.96 50.27C20.32 50.91 20 51.615 20 52.385V101.235C20 102.002 20.32 102.705 20.96 103.345C21.6 103.985 22.305 104.307 23.075 104.31" fill="#222222"/>
</g>
<defs>
<clipPath id="clip0_4_9">
<rect width="120" height="120" fill="white"/>
</clipPath>
</defs>
</svg>
